<?xml version="1.0" encoding="utf-8"?>
<!-- Generator: Adobe Illustrator 21.0.0, SVG Export Plug-In . SVG Version: 6.00 Build 0)  -->
<svg version="1.1" id="图层_1" xmlns="http://www.w3.org/2000/svg" xmlns:xlink="http://www.w3.org/1999/xlink" x="0px" y="0px"
	 width="24px" height="24px" viewBox="0 0 24 24" style="enable-background:new 0 0 24 24;" xml:space="preserve">
<g>
	<path style="fill:#C9C9C9;" d="M19.5,23.5c-0.1,0-0.2,0-0.3,0c-3.2-0.4-6.4-1.5-9.1-3.2c-2.5-1.6-4.7-3.8-6.3-6.3
		C2.1,11.3,1,8.1,0.6,4.9C0.5,3.2,1.7,1.8,3.3,1.6c0.1,0,0.2,0,0.3,0h3c0,0,0,0,0,0c1.5,0,2.8,1.1,3,2.6c0.1,0.9,0.3,1.8,0.6,2.6
		c0.4,1.1,0.1,2.3-0.7,3.2l-0.7,0.7c1.2,1.8,2.7,3.4,4.6,4.6l0.7-0.7c0.8-0.8,2.1-1.1,3.2-0.7c0.8,0.3,1.7,0.5,2.6,0.6
		c1.5,0.2,2.6,1.5,2.6,3v3C22.5,22.2,21.2,23.5,19.5,23.5z M6.6,3.6C6.6,3.6,6.6,3.6,6.6,3.6h-3c-0.6,0.1-1,0.5-1,1.1
		c0.3,2.9,1.3,5.8,2.9,8.2c1.5,2.3,3.4,4.3,5.7,5.7c2.5,1.6,5.3,2.6,8.2,2.9c0,0,0,0,0,0c0.6,0,1.1-0.5,1.1-1v-3c0,0,0,0,0,0
		c0-0.5-0.4-0.9-0.9-1c-1-0.1-2-0.4-3-0.8c-0.4-0.1-0.8,0-1.1,0.2l-1.3,1.3c-0.3,0.3-0.8,0.4-1.2,0.2c-2.7-1.5-4.9-3.7-6.4-6.4
		c-0.2-0.4-0.2-0.9,0.2-1.2l1.3-1.3c0.3-0.3,0.4-0.7,0.2-1.1c-0.4-1-0.6-2-0.8-3C7.6,4,7.1,3.6,6.6,3.6z M18.5,10.5
		c-0.5,0-0.9-0.3-1-0.8c-0.3-1.6-1.6-2.8-3.2-3.2c-0.5-0.1-0.9-0.6-0.8-1.2c0.1-0.5,0.6-0.9,1.2-0.8c2.4,0.5,4.3,2.3,4.7,4.7
		c0.1,0.5-0.2,1.1-0.8,1.2C18.6,10.5,18.6,10.5,18.5,10.5z M22.5,10.5c-0.5,0-0.9-0.4-1-0.9c-0.4-3.7-3.3-6.6-7.1-7.1
		c-0.5-0.1-0.9-0.6-0.9-1.1s0.6-0.9,1.1-0.9c4.7,0.5,8.3,4.1,8.8,8.8c0.1,0.5-0.3,1-0.9,1.1C22.6,10.5,22.5,10.5,22.5,10.5z"/>
</g>
</svg>
