<?xml version="1.0" encoding="utf-8"?>
<!-- Generator: Adobe Illustrator 21.0.0, SVG Export Plug-In . SVG Version: 6.00 Build 0)  -->
<svg version="1.1" id="图层_1" xmlns="http://www.w3.org/2000/svg" xmlns:xlink="http://www.w3.org/1999/xlink" x="0px" y="0px"
	 width="24px" height="24px" viewBox="0 0 24 24" style="enable-background:new 0 0 24 24;" xml:space="preserve">
<g>
	<path style="fill-rule:evenodd;clip-rule:evenodd;fill:#3D3D3D;" d="M22.7,3.8L22.7,3.8l0-1c0-1.1-1-2-2.1-2l-17.2,0
		c-1.1,0-2,0.9-2,2l0,18.4c0,0,0,0,0,0c0,1.1,1,2,2.1,2h1.1v0l14.9,0v0h1.1c1.1,0,2-0.8,2.1-1.8L22.7,3.8z M20.6,2.8L20.6,2.8
		l-1.8,0L20.6,2.8z M3.4,2.8l0.7,0L3.4,2.8L3.4,2.8z M3.4,21.2l0-17.2l0,0.9c0-1.5,0.3-2,1.9-2l13.2,0c1.7,0,2.1,0.4,2.1,2l0-1
		l0,15.4l0,0c0,1.6-0.3,2-2.1,2L3.4,21.2z M20.6,21.2l-1.8,0L20.6,21.2L20.6,21.2z M17.3,6.9c-0.6,0-1.1,0.5-1.1,1c0,0,0,0,0,0.1
		c0,2.2-1.9,4-4.3,4c-2.3,0-4.2-1.8-4.3-4c0,0,0-0.1,0-0.1c0-0.6-0.5-1-1.1-1c-0.6,0-1.1,0.5-1.1,1h0c0,0,0,0,0,0
		c0,3.4,2.9,6.1,6.4,6.1c3.5,0,6.4-2.7,6.4-6.1c0,0,0,0,0,0c0,0,0,0,0,0C18.4,7.3,17.9,6.9,17.3,6.9z"/>
</g>
</svg>
