<svg id="logo" xmlns="http://www.w3.org/2000/svg" width="132" height="36" viewBox="0 0 132 36">
  <metadata><?xpacket begin="﻿" id="W5M0MpCehiHzreSzNTczkc9d"?>
<x:xmpmeta xmlns:x="adobe:ns:meta/" x:xmptk="Adobe XMP Core 5.6-c138 79.159824, 2016/09/14-01:09:01        ">
   <rdf:RDF xmlns:rdf="http://www.w3.org/1999/02/22-rdf-syntax-ns#">
      <rdf:Description rdf:about=""/>
   </rdf:RDF>
</x:xmpmeta>
                                                                                                    
                                                                                                    
                                                                                                    
                                                                                                    
                                                                                                    
                                                                                                    
                                                                                                    
                                                                                                    
                                                                                                    
                                                                                                    
                                                                                                    
                                                                                                    
                                                                                                    
                                                                                                    
                                                                                                    
                                                                                                    
                                                                                                    
                                                                                                    
                                                                                                    
                                                                                                    
                           
<?xpacket end="w"?></metadata>
<defs>
    <style>
      .cls-1 {
        fill: #fff;
      }

      .cls-1, .cls-2 {
        fill-rule: evenodd;
      }

      .cls-2 {
        fill: #d00;
      }
    </style>
  </defs>
  <path id="形状_1" data-name="形状 1" class="cls-1" d="M203,503.1v-2.7h21.765v2.7h-9.46V528h-2.847V503.1H203Zm44.943,4.486V528h-2.618V524.5a11.358,11.358,0,0,1-3.747,3.021,10.244,10.244,0,0,1-4.543,1.016,10.134,10.134,0,0,1-7.485-3.144,10.49,10.49,0,0,1-3.1-7.649,10.7,10.7,0,0,1,10.661-10.682,9.828,9.828,0,0,1,4.6,1.07,10.438,10.438,0,0,1,3.614,3.21v-3.754h2.618Zm-10.614,2.008a8.071,8.071,0,0,0-4.094,1.078,7.936,7.936,0,0,0-2.984,3.028,8.194,8.194,0,0,0,.01,8.25,8.1,8.1,0,0,0,3,3.066,7.945,7.945,0,0,0,4.046,1.1,8.356,8.356,0,0,0,4.13-1.087,7.65,7.65,0,0,0,3-2.943A8.344,8.344,0,0,0,245.5,517.9a8.084,8.084,0,0,0-2.359-5.924A7.864,7.864,0,0,0,237.33,509.591Zm17.139-2.008h2.713v2.985a9.454,9.454,0,0,1,2.561-2.637,5.086,5.086,0,0,1,2.807-.873,4.885,4.885,0,0,1,2.353.695l-1.386,2.215a3.719,3.719,0,0,0-1.4-.357,3.859,3.859,0,0,0-2.559,1.079,6.8,6.8,0,0,0-1.879,3.351,31.784,31.784,0,0,0-.493,7.056V528h-2.713V507.583ZM316.39,521.23l2.238,1.163a12.059,12.059,0,0,1-2.545,3.454,10.118,10.118,0,0,1-3.245,2,11.429,11.429,0,0,1-4.083.686,9.913,9.913,0,0,1-7.9-3.276,10.987,10.987,0,0,1-2.848-7.406,10.848,10.848,0,0,1,2.411-6.927,9.9,9.9,0,0,1,8.184-3.866,10.221,10.221,0,0,1,8.431,3.961A10.968,10.968,0,0,1,319.313,518H300.742a8.272,8.272,0,0,0,2.3,5.833,7.372,7.372,0,0,0,5.489,2.276,8.927,8.927,0,0,0,3.067-.542,8.118,8.118,0,0,0,2.537-1.44A12.3,12.3,0,0,0,316.39,521.23Zm0-5.5a8.644,8.644,0,0,0-1.548-3.358,7.361,7.361,0,0,0-2.685-2.029,8.307,8.307,0,0,0-3.514-.77,7.622,7.622,0,0,0-5.225,1.933,8.718,8.718,0,0,0-2.413,4.224H316.39ZM328.133,500h2.656v7.585H335v2.271h-4.212V528h-2.655V509.855H324.51v-2.271h3.622V500Zm-36.915,13.106v-5.522h-2.656V509.2A11.7,11.7,0,0,1,291.218,513.105Zm-2.681,12.834a9.965,9.965,0,0,1-.773,4.125,6.183,6.183,0,0,1-2.669,2.515,9.607,9.607,0,0,1-4.586,1,9.846,9.846,0,0,1-4.616-.976,7.59,7.59,0,0,1-3.04-3H269.97a11.874,11.874,0,0,0,2.446,3.66,9.605,9.605,0,0,0,3.444,2,14.37,14.37,0,0,0,4.771.743,12.012,12.012,0,0,0,6.2-1.52,8.194,8.194,0,0,0,3.623-4.336,19.056,19.056,0,0,0,.758-6.288v-1.843A11.691,11.691,0,0,1,288.537,525.939Z" transform="translate(-203 -500)"/>
  <path id="形状_1_拷贝" data-name="形状 1 拷贝" class="cls-2" d="M280.262,511.754a5.806,5.806,0,1,0,5.867,5.806h0A5.835,5.835,0,0,0,280.262,511.754Zm0,9.509a3.7,3.7,0,1,1,3.744-3.705h0a3.724,3.724,0,0,1-3.742,3.706h0Zm0-5.805a2.1,2.1,0,1,1-2.123,2.1A2.113,2.113,0,0,1,280.262,515.458Zm0-8.738a10.841,10.841,0,1,0,10.956,10.84A10.9,10.9,0,0,0,280.262,506.72Zm0,18.963a8.123,8.123,0,1,1,8.209-8.123A8.166,8.166,0,0,1,280.262,525.683Zm-1.327-21.2h2.656v5.54h-2.656v-5.54Zm0,20.423h2.656v5.539h-2.656v-5.539Zm8.848-8.756h5.6v2.628h-5.6v-2.628Zm-20.64,0h5.6v2.628h-5.6v-2.628Z" transform="translate(-203 -500)"/>
</svg>
