<?xml version="1.0" encoding="utf-8"?>
<!-- Generator: Adobe Illustrator 22.1.0, SVG Export Plug-In . SVG Version: 6.00 Build 0)  -->
<svg version="1.1" id="图层_1" xmlns="http://www.w3.org/2000/svg" xmlns:xlink="http://www.w3.org/1999/xlink" x="0px" y="0px"
	 viewBox="0 0 3461.4 954.1" style="enable-background:new 0 0 3461.4 954.1;" xml:space="preserve">
<style type="text/css">
	.st0{fill:#FFFFFF;}
	.st1{fill:url(#SVGID_1_);}
	.st2{fill:url(#SVGID_2_);}
	.st3{fill:url(#SVGID_3_);}
	.st4{fill:url(#SVGID_4_);}
	.st5{fill:url(#SVGID_5_);}
	.st6{fill:url(#SVGID_6_);}
	.st7{fill:url(#SVGID_7_);}
</style>
<title>LOGO</title>
<path class="st0" d="M0,82.1V10.4h570.8V82H322.7v660.1h-74.6v-660H0z"/>
<path class="st0" d="M1178.5,201v541.2h-68.7v-93c-29.2,35.5-61.9,62.2-98.2,80.1s-76,26.9-119.1,26.9c-76.6,0-142-27.8-196.2-83.3
	C642.1,617.3,615,549.8,615,470.2c0-77.9,27.4-144.6,82.1-200c54.7-55.4,120.5-83.1,197.5-83.1c44.4,0,84.7,9.5,120.6,28.4
	c36,18.9,67.6,47.3,94.8,85.1V201H1178.5z M900.2,254.2c-38.8,0-74.5,9.5-107.3,28.6S734,328.5,714.6,363
	c-19.3,34.4-29,70.9-29.1,109.3c0,38.1,9.8,74.5,29.3,109.3s45.8,61.9,78.8,81.2s68.3,29,106.1,29.1c38.1,0,74.2-9.6,108.3-28.8
	c34.1-19.2,60.4-45.2,78.8-78s27.6-69.7,27.6-110.8c0-62.6-20.6-114.9-61.8-157S960.5,254.2,900.2,254.2z"/>
<path class="st0" d="M1349.6,201h71.1v79.1c21.2-31.2,43.6-54.5,67.2-69.9s48.1-23.1,73.6-23.1c19.2,0,39.8,6.1,61.7,18.4
	l-36.3,58.7c-14.6-6.3-26.9-9.5-36.8-9.4c-23.2,0-45.6,9.5-67.2,28.6s-38,48.7-49.2,88.8c-8.6,30.8-12.9,93.2-12.9,187v183.1h-71.1
	L1349.6,201z"/>
<path class="st0" d="M2973.4,562.6l58.7,30.8c-19.2,37.8-41.5,68.3-66.7,91.5c-24.7,22.9-53.6,40.9-85.1,53s-67.2,18.2-107,18.2
	c-88.3,0-157.3-28.9-207.1-86.8S2491.5,546,2491.5,473c0-68.7,21.1-129.9,63.2-183.6c53.4-68.3,125-102.5,214.6-102.5
	c92.3,0,166,35,221.1,105c39.2,49.4,59.1,111.1,59.7,185.1h-487c1.3,62.8,21.4,114.4,60.3,154.6c38.9,40.2,86.8,60.3,143.9,60.3
	c27.4,0,54.7-4.9,80.4-14.4c26.1-9.6,48.2-22.3,66.5-38.1S2952.1,598,2973.4,562.6z M2973.4,416.9c-9.3-37.1-22.8-66.8-40.6-89
	s-41.2-40.1-70.4-53.8c-28.8-13.5-60.3-20.5-92.2-20.4c-53.1,0-98.8,17.1-137,51.2c-27.9,24.9-49,62.2-63.3,111.9L2973.4,416.9z"/>
<path class="st0" d="M3281.3,0h69.6v201h110.4v60.2h-110.4v481h-69.6v-481h-95V201h95V0z"/>
<g>
	<path class="st0" d="M2313.3,347.3V201h-69.6v42.9C2273.6,273.3,2297.3,308.5,2313.3,347.3z"/>
	<path class="st0" d="M2243,687.4c-1.5,48.9-8,85.8-20.3,109.3c-13.9,26.7-37.3,49-70,66.7s-72.8,26.5-120.3,26.5
		c-48.2,0-88.5-8.6-121.1-25.9c-32.5-17.2-59.1-43.8-79.7-79.6H1756c19.6,42.6,41,74.9,64.2,97s53.3,39.7,90.3,52.9
		c37,13.1,78.7,19.7,125.1,19.7c63.3,0,117.6-13.4,162.7-40.3c45.1-26.9,76.8-65.2,95-114.9c13.3-35.2,19.9-90.7,19.9-166.6v-48.8
		C2297.2,622.5,2273.3,657.9,2243,687.4z"/>
</g>
<g>
	<linearGradient id="SVGID_1_" gradientUnits="userSpaceOnUse" x1="2167.8081" y1="646.329" x2="1841.8082" y2="230.329">
		<stop  offset="0" style="stop-color:#F74343"/>
		<stop  offset="1" style="stop-color:#DD0000"/>
	</linearGradient>
	<path class="st1" d="M2026,311.5c-85,0-153.9,68.9-153.9,153.9S1941,619.2,2026,619.2s153.9-68.9,153.9-153.9l0,0
		C2179.9,380.4,2111,311.5,2026,311.5z M2026,563.5c-54.2,0-98.2-44-98.2-98.2s44-98.2,98.2-98.2s98.2,44,98.2,98.2l0,0
		C2124.2,519.6,2080.3,563.5,2026,563.5C2026,563.6,2026,563.6,2026,563.5L2026,563.5z"/>
	<linearGradient id="SVGID_2_" gradientUnits="userSpaceOnUse" x1="2167.7942" y1="646.3399" x2="1841.7943" y2="230.3399">
		<stop  offset="0" style="stop-color:#F74343"/>
		<stop  offset="1" style="stop-color:#DD0000"/>
	</linearGradient>
	<circle class="st2" cx="2026" cy="465.4" r="55.7"/>
	<linearGradient id="SVGID_3_" gradientUnits="userSpaceOnUse" x1="2167.7942" y1="646.3399" x2="1841.7943" y2="230.3399">
		<stop  offset="0" style="stop-color:#F74343"/>
		<stop  offset="1" style="stop-color:#DD0000"/>
	</linearGradient>
	<path class="st3" d="M2026,178.1c-158.7,0-287.3,128.6-287.3,287.3s128.6,287.3,287.3,287.3s287.3-128.6,287.3-287.3
		S2184.7,178.1,2026,178.1z M2026,680.7c-118.9,0-215.3-96.4-215.3-215.3s96.4-215.3,215.3-215.3c118.9,0,215.3,96.4,215.3,215.3
		S2144.9,680.7,2026,680.7z"/>
	<g>
		<linearGradient id="SVGID_4_" gradientUnits="userSpaceOnUse" x1="2300.4331" y1="542.3969" x2="1974.4331" y2="126.3969">
			<stop  offset="0" style="stop-color:#F74343"/>
			<stop  offset="1" style="stop-color:#DD0000"/>
		</linearGradient>
		<rect x="1991.2" y="118.8" class="st4" width="69.6" height="146.8"/>
		<linearGradient id="SVGID_5_" gradientUnits="userSpaceOnUse" x1="2037.6799" y1="748.3045" x2="1711.6799" y2="332.3045">
			<stop  offset="0" style="stop-color:#F74343"/>
			<stop  offset="1" style="stop-color:#DD0000"/>
		</linearGradient>
		<rect x="1991.2" y="660" class="st5" width="69.6" height="146.8"/>
	</g>
	<g>
		<linearGradient id="SVGID_6_" gradientUnits="userSpaceOnUse" x1="2336.7029" y1="513.9741" x2="2010.7028" y2="97.9741">
			<stop  offset="0" style="stop-color:#F74343"/>
			<stop  offset="1" style="stop-color:#DD0000"/>
		</linearGradient>
		<rect x="2223.2" y="428" class="st6" width="146.8" height="69.6"/>
		<linearGradient id="SVGID_7_" gradientUnits="userSpaceOnUse" x1="2001.4104" y1="776.7273" x2="1675.4104" y2="360.7273">
			<stop  offset="0" style="stop-color:#F74343"/>
			<stop  offset="1" style="stop-color:#DD0000"/>
		</linearGradient>
		<rect x="1682" y="428" class="st7" width="146.8" height="69.6"/>
	</g>
</g>
</svg>
